/* XPM */
static char * matlab_xpm[] = {
"35 32 375 2",
"  	c None",
". 	c #468D8D",
"+ 	c #7C251D",
"@ 	c #44C2C2",
"# 	c #546565",
"$ 	c #A7340F",
"% 	c #AB280F",
"& 	c #44AFAF",
"* 	c #69180F",
"= 	c #E88E0F",
"- 	c #D0530F",
"; 	c #AB260F",
"> 	c #44A1A1",
", 	c #477676",
"' 	c #83250F",
") 	c #F9CE0F",
"! 	c #EE8E0F",
"~ 	c #B2290F",
"{ 	c #44A3A3",
"] 	c #521613",
"^ 	c #99360F",
"/ 	c #FEDB0F",
"( 	c #FAAF0F",
"_ 	c #BD330F",
": 	c #AC260F",
"< 	c #448F8F",
"[ 	c #448686",
"} 	c #62150F",
"| 	c #AE460F",
"1 	c #FFD20F",
"2 	c #FFBC0F",
"3 	c #CB430F",
"4 	c #AF270F",
"5 	c #449191",
"6 	c #44A6A6",
"7 	c #483030",
"8 	c #70190F",
"9 	c #BA4F0F",
"0 	c #FFC30F",
"a 	c #FFBB0F",
"b 	c #DB540F",
"c 	c #B3280F",
"d 	c #448181",
"e 	c #449B9B",
"f 	c #448A8A",
"g 	c #53120F",
"h 	c #7B1D0F",
"i 	c #C3550F",
"j 	c #FFB30F",
"k 	c #FFB60F",
"l 	c #E6620F",
"m 	c #B72C0F",
"n 	c #AD260F",
"o 	c #447575",
"p 	c #449393",
"q 	c #449595",
"r 	c #454D4C",
"s 	c #61150F",
"t 	c #85210F",
"u 	c #CA5A0F",
"v 	c #FFA60F",
"w 	c #FFAE0F",
"x 	c #EE6C0F",
"y 	c #B0270F",
"z 	c #447A7A",
"A 	c #447B7B",
"B 	c #448484",
"C 	c #4B100F",
"D 	c #6D180F",
"E 	c #8D260F",
"F 	c #CD5B0F",
"G 	c #FF9B0F",
"H 	c #F4750F",
"I 	c #C43A0F",
"J 	c #B2280F",
"K 	c #449D9D",
"L 	c #449999",
"M 	c #448B8B",
"N 	c #446C6C",
"O 	c #447171",
"P 	c #445A5A",
"Q 	c #57130F",
"R 	c #751A0F",
"S 	c #942B0F",
"T 	c #CF5C0F",
"U 	c #FD920F",
"V 	c #FF9F0F",
"W 	c #F8790F",
"X 	c #B4290F",
"Y 	c #44C3C3",
"Z 	c #44A2A2",
"` 	c #447C7C",
" .	c #445B5B",
"..	c #444848",
"+.	c #447676",
"@.	c #47100F",
"#.	c #64160F",
"$.	c #7C1C0F",
"%.	c #9C310F",
"&.	c #D15D0F",
"*.	c #FC8A0F",
"=.	c #FF980F",
"-.	c #FA7C0F",
";.	c #D34B0F",
">.	c #447979",
",.	c #446E6E",
"'.	c #445858",
").	c #444444",
"!.	c #443737",
"~.	c #445353",
"{.	c #52120F",
"].	c #821F0F",
"^.	c #A2350F",
"/.	c #D25E0F",
"(.	c #FB840F",
"_.	c #FF920F",
":.	c #FC7E0F",
"<.	c #DA530F",
"[.	c #BA310F",
"}.	c #B1270F",
"|.	c #AB250F",
"1.	c #495857",
"2.	c #443636",
"3.	c #443131",
"4.	c #442B2B",
"5.	c #442626",
"6.	c #442323",
"7.	c #446D6D",
"8.	c #461211",
"9.	c #5F150F",
"0.	c #88220F",
"a.	c #A8390F",
"b.	c #F87F0F",
"c.	c #FF8D0F",
"d.	c #FD7F0F",
"e.	c #E0590F",
"f.	c #BF360F",
"g.	c #6DC0B7",
"h.	c #6DB6AD",
"i.	c #649F98",
"j.	c #494E4C",
"k.	c #441D1D",
"l.	c #441919",
"m.	c #441818",
"n.	c #445050",
"o.	c #50110F",
"p.	c #69170F",
"q.	c #7B1C0F",
"r.	c #8F260F",
"s.	c #AD3E0F",
"t.	c #D35E0F",
"u.	c #F57B0F",
"v.	c #FF890F",
"w.	c #FE7F0F",
"x.	c #E6600F",
"y.	c #C53C0F",
"z.	c #B42A0F",
"A.	c #AF260F",
"B.	c #6DD0C7",
"C.	c #6DC9C0",
"D.	c #6DACA3",
"E.	c #699D94",
"F.	c #4F5854",
"G.	c #441212",
"H.	c #446969",
"I.	c #46100F",
"J.	c #5D140F",
"K.	c #71190F",
"L.	c #811E0F",
"M.	c #952A0F",
"N.	c #B2420F",
"O.	c #D55F0F",
"P.	c #F3780F",
"Q.	c #FF850F",
"R.	c #EA650F",
"S.	c #B72D0F",
"T.	c #AA250F",
"U.	c #6DDDD4",
"V.	c #6DD9D0",
"W.	c #6DD4CB",
"X.	c #6DCEC5",
"Y.	c #6DC6BD",
"Z.	c #6DBEB5",
"`.	c #6DB5AC",
" +	c #6DA39A",
".+	c #6C9990",
"++	c #576762",
"@+	c #445F5F",
"#+	c #51120F",
"$+	c #68170F",
"%+	c #771A0F",
"&+	c #86210F",
"*+	c #9B2F0F",
"=+	c #B7460F",
"-+	c #D6600F",
";+	c #F0760F",
">+	c #FE820F",
",+	c #FE7E0F",
"'+	c #EE690F",
")+	c #D24A0F",
"!+	c #6DDCD3",
"~+	c #6DDBD2",
"{+	c #6DD8CF",
"]+	c #6DCAC1",
"^+	c #6DC3BA",
"/+	c #6DBCB3",
"(+	c #6DB4AB",
"_+	c #6DA49B",
":+	c #6D9B92",
"<+	c #679089",
"[+	c #456161",
"}+	c #49100F",
"|+	c #70180F",
"1+	c #7D1C0F",
"2+	c #8D250F",
"3+	c #A2340F",
"4+	c #BC490F",
"5+	c #D7600F",
"6+	c #EF740F",
"7+	c #FD800F",
"8+	c #F16D0F",
"9+	c #D8510F",
"0+	c #B3290F",
"a+	c #6DD7CE",
"b+	c #6DD5CC",
"c+	c #6DD3CA",
"d+	c #6DD0C6",
"e+	c #6DCBC2",
"f+	c #6DBAB1",
"g+	c #6DB3AA",
"h+	c #6DACA2",
"i+	c #6C9A92",
"j+	c #4D7E7C",
"k+	c #451818",
"l+	c #56130F",
"m+	c #6A170F",
"n+	c #841F0F",
"o+	c #93290F",
"p+	c #C04D0F",
"q+	c #D8620F",
"r+	c #EE730F",
"s+	c #F4700F",
"t+	c #DD570F",
"u+	c #B52B0F",
"v+	c #6DC7BE",
"w+	c #6DC2B9",
"x+	c #6DBDB4",
"y+	c #6DB7AE",
"z+	c #6DB1A8",
"A+	c #6DAAA1",
"B+	c #6DA49A",
"C+	c #558E8B",
"D+	c #72190F",
"E+	c #7E1C0F",
"F+	c #8A230F",
"G+	c #AF3F0F",
"H+	c #C5510F",
"I+	c #DA630F",
"J+	c #ED730F",
"K+	c #FA7D0F",
"L+	c #F6730F",
"M+	c #E35D0F",
"N+	c #B92F0F",
"O+	c #6DBFB6",
"P+	c #6DAFA6",
"Q+	c #6DA9A0",
"R+	c #589692",
"S+	c #4D110F",
"T+	c #60150F",
"U+	c #6E180F",
"V+	c #791B0F",
"W+	c #84200F",
"X+	c #92280F",
"Y+	c #A3350F",
"Z+	c #B6440F",
"`+	c #C9550F",
" @	c #DD650F",
".@	c #F97C0F",
"+@	c #F8750F",
"@@	c #E8620F",
"#@	c #D1490F",
"$@	c #6DBBB2",
"%@	c #6DB2A9",
"&@	c #6CABA2",
"*@	c #569E9B",
"=@	c #446666",
"-@	c #4C1210",
";@	c #5E140F",
">@	c #6C180F",
",@	c #9C300F",
"'@	c #AC3C0F",
")@	c #BD4A0F",
"!@	c #CE590F",
"~@	c #DF670F",
"{@	c #F9770F",
"]@	c #EB660F",
"^@	c #D54E0F",
"/@	c #C1380F",
"(@	c #B62B0F",
"_@	c #6DB8AF",
":@	c #65B7B0",
"<@	c #4FA5A3",
"[@	c #457171",
"}@	c #4F1413",
"|@	c #801E0F",
"1@	c #8B240F",
"2@	c #982D0F",
"3@	c #A7380F",
"4@	c #B6450F",
"5@	c #D45E0F",
"6@	c #E26A0F",
"7@	c #F87B0F",
"8@	c #FD7E0F",
"9@	c #B82D0F",
"0@	c #AE260F",
"a@	c #781A0F",
"b@	c #8C250F",
"c@	c #A5380F",
"d@	c #B3430F",
"e@	c #C04E0F",
"f@	c #CD590F",
"g@	c #E66D0F",
"h@	c #F0750F",
"i@	c #F77B0F",
"j@	c #7B1B0F",
"k@	c #90280F",
"l@	c #9D320F",
"m@	c #AA3C0F",
"n@	c #B7470F",
"o@	c #C2500F",
"p@	c #CC590F",
"q@	c #D6610F",
"r@	c #E0690F",
"s@	c #E86F0F",
"t@	c #EF750F",
"u@	c #B2270F",
"v@	c #992F0F",
"w@	c #A93C0F",
"x@	c #B7480F",
"y@	c #C2510F",
"z@	c #D35F0F",
"A@	c #DA650F",
"B@	c #E16A0F",
"C@	c #E66E0F",
"D@	c #E9700F",
"E@	c #BD4E0F",
"F@	c #D05E0F",
"G@	c #DB680F",
"H@	c #E16E0F",
"I@	c #E5700F",
"J@	c #E7710F",
"K@	c #EA730F",
"L@	c #EB730F",
"M@	c #E9710F",
"N@	c #EC7A0F",
"O@	c #FA8D0F",
"P@	c #FD910F",
"Q@	c #FC8C0F",
"R@	c #FB860F",
"S@	c #F9820F",
"T@	c #F27A0F",
"U@	c #FFBD0F",
"V@	c #FFC10F",
"W@	c #FFB80F",
"X@	c #FFAB0F",
"Y@	c #FF9E0F",
"Z@	c #FFE00F",
"`@	c #FFEA0F",
" #	c #FFCC0F",
".#	c #FFB00F",
"+#	c #FFE60F",
"@#	c #FFF70F",
"##	c #FFFA0F",
"$#	c #FFE20F",
"%#	c #FFE40F",
"                                            . +                       ",
"                                          @ # $ %                     ",
"                                          & * = - ;                   ",
"                                        > , ' ) ! ~                   ",
"                                        { ] ^ / ( _ :                 ",
"                                      < [ } | 1 2 3 4                 ",
"                                    5 6 7 8 9 0 a b c                 ",
"                                  d e f g h i j k l m n               ",
"                                o p q r s t u v w x _ y               ",
"                              z < A B C D E F G v H I J ;             ",
"                          K L M N O P Q R S T U V W 3 X n             ",
"                        Y Z `  ...+.@.#.$.%.&.*.=.-.;.m 4             ",
"                      >.,.'.).!.~.'.{.D ].^./.(._.:.<.[.}.|.          ",
"                    1.2.3.4.5.6.7.8.9.R 0.a./.b.c.d.e.f.c :           ",
"                g.h.i.j.k.l.m.n.n.o.p.q.r.s.t.u.v.w.x.y.z.A.          ",
"            B.C.g.h.D.E.F.m.G.H.I.J.K.L.M.N.O.P.Q.w.R.3 S.}.T.        ",
"      U.V.W.X.Y.Z.`.D. +.+++@+!.#+$+%+&+*+=+-+;+>+,+'+)+[.J :         ",
"  !+~+{+W.B.]+^+/+(+D._+:+<+[+}+9.|+1+2+3+4+5+6+7+,+8+9+f.0+4         ",
"  a+b+c+d+e+Y.g.f+g+h+_+i+j+k+l+m+%+n+o+a.p+q+r+:.,+s+t+y.u+}.T.      ",
"    B.X.e+v+w+x+y+z+A+B+C+!.o.#.D+E+F+*+G+H+I+J+K+,+L+M+3 N+J :       ",
"        Y.^+O+f+`.P+Q+R+~.S+T+U+V+W+X+Y+Z+`+ @J+.@,++@@@#@_ X 4       ",
"          O+$@y+%@&@*@=@-@;@>@%+L.2+,@'@)@!@~@r+.@,+{@]@^@/@(@}.|.    ",
"            _@y+:@<@[@}@9.>@%+|@1@2@3@4@H+5@6@6+7@8@        9@c 0@    ",
"                      } U+a@L.b@2@c@d@e@f@I+g@h@i@            c }.;   ",
"                        j@W+k@l@m@n@o@p@q@r@s@t@                u@0@  ",
"                        F+v@w@x@y@p@z@A@B@C@D@                    y   ",
"                          E@F@G@H@I@J@K@L@M@                          ",
"                          N@O@U P@Q@R@S@T@                            ",
"                            U@V@W@X@Y@c.                              ",
"                            Z@`@Z@ #.#                                ",
"                            +#@###$#                                  ",
"                              %#                                      "};
